<svg xmlns="http://www.w3.org/2000/svg" width="245" height="115">
<path d="M35 29.5h12v10.34q0 2.479 2 2.479t2-4.75q0-6.178-2.5-8-9.372-5-11.305-6.85-1.934-1.976-1.934-5.885v-6.557Q35.298 0 49.252 0q13.576 0 13.576 9.877v9.625H51.144l.252-5.842q0-6.095-2.228-6.095-2.227 0-2.227 3.825 0 3.95.966 5.968 1 2 11 7 4.161 3 4.161 7.902v7.313q0 10.297-14.164 10.297-13.87 0-13.87-9.877zM65.307 39.508v-29.21Q65.307 0 79.5 0q5.5 0 9.667 2.396 4.203 2.395 4.203 7.481v30q0 9.877-13.87 9.877-14.248 0-14.248-10.297zm16.14.336V9.961q0-2.396-2-2.396-2.1 0-2.1 2.396v29.883q0 2.48 2.1 2.48 2 0 2-2.48zM123.85 49.133h-11.936v-1.64q-2.312 2.312-7.4 2.312-3.53 0-6.137-1.849-2.563-1.891-2.563-4.917V.336h11.936v39.676q0 2.228 2.1 2.228 2 0 2-2.144V.336h11.936zM154.872 20.553h-11.978V9.96q0-2.228-2-2.228t-2 2.144v39.256h-11.978V.336h11.979v1.64Q141.17 0 146.172 0q3.572 0 6.136 1.933 2.564 1.892 2.564 5zM185.137 21.94h-11.936V9.96q0-2.396-2.06-2.396-2.101 0-2.101 2.396v29.883q0 2.48 2.101 2.48 2 0 2-2.48v-11.81h11.936v11.894q0 9.877-13.828 9.877-14.206 0-14.206-10.297v-29.21Q157.103 0 171.31 0q13.828 0 13.828 9.877zM215.823 28.454h-16.098v11.39q0 2.48 2.102 2.48 2.06 0 2.06-2.48V30h11.936v9.92q0 9.876-14.08 9.876-14 0-14-10.297v-29.21Q187.789 0 201.743 0q14 0 14 9.877zm-11.937-7.313V9.961q0-2.396-2.06-2.396-2.1 0-2.1 2.396v11.18z"/>
<path d="M112.847 108.67V58.444h12.994q4.658 0 8.09 2.137 3.433 2.101 3.433 6.76v6.97q0 5.288-6.444 7.46 6.795 1.681 6.795 7.25v9.737q0 4.974-3.258 7.46-3.222 2.452-7.705 2.452zm14.115-32.573V67.55q0-2.627-3.082-2.627v13.835q3.082 0 3.082-2.662zm0 23.467V86.85q0-2.627-3.082-2.627v18.002q3.082 0 3.082-2.661zM139.998 100.089V67.761q0-9.772 12.679-9.772 12.504 0 12.504 9.702v32.328q0 4.378-3.503 6.76-3.467 2.346-9.071 2.346-12.61 0-12.61-9.036zm14.395.525V66.395q0-1.506-1.786-1.506-1.856 0-1.856 1.506v34.22q0 1.505 1.856 1.505 1.786 0 1.786-1.506zM190.516 64.994h-6.165v43.676h-11.033V64.994h-6.164v-6.55h23.362zM192.575 88.566h10.052v11.523q0 1.716 2.067 1.716 1.996 0 1.996-1.716v-5.954q0-2.732-3.643-6.41-7.04-6.83-8.756-9.176-1.716-2.347-1.716-5.149v-5.639q0-9.772 12.749-9.772 11.418 0 11.418 8.896v8.687H206.69v-9.247q0-1.506-1.646-1.506-1.927 0-1.927 2.907l.21 3.257q0 2.802 3.713 6.515 6.9 6.62 8.756 9.246 1.892 2.627 1.892 5.955v6.41q0 10.016-12.784 10.016-12.329 0-12.329-9.106z"/>
<g fill="none" stroke="#000" stroke-width="5">
<path d="M30 24H2.5V89h39l0-20 16 20-16 20 0-20" />
<path d="M66 64v50" />
<path d="M68 89h40" />
<path d="M222 89h15v-13" />
<path d="M222 24h15v13" />
<circle cx="237" cy="42" r="5" stroke-width="3"/>
<circle cx="237" cy="72" r="5" stroke-width="3"/>
<path d="M225.504 44.83l9.117 22.78" stroke-width="3"/>
</g>
</svg>

